<?xml version="1.0" encoding="UTF-8"?>
<svg id="Layer_1" xmlns="http://www.w3.org/2000/svg" viewBox="0 0 370.33 370.33">
  <defs>
    <style>.cls-1{fill:#fff;}.cls-2{fill:none;}</style>
  </defs>
  <rect class="cls-2" width="370.33" height="370.33"/>
  <path class="cls-1" d="M132.6,209.74v-45.48c0-1.9-1.01-3.65-2.65-4.6l-39.39-22.74c-1.64-.95-3.66-.95-5.31,0l-39.39,22.74c-1.64,.95-2.65,2.7-2.65,4.6v45.48c0,1.9,1.01,3.65,2.65,4.6l39.39,22.74c1.64,.95,3.66,.95,5.31,0l39.39-22.74c1.64-.95,2.65-2.7,2.65-4.6Z"/>
  <path class="cls-1" d="M179.65,292.7v-45.48c0-1.9-1.01-3.65-2.65-4.6l-39.39-22.74c-1.64-.95-3.66-.95-5.31,0l-39.39,22.74c-1.64,.95-2.65,2.7-2.65,4.6v45.48c0,1.9,1.01,3.65,2.65,4.6l39.39,22.74c1.64,.95,3.66,.95,5.31,0l39.39-22.74c1.64-.95,2.65-2.7,2.65-4.6Z"/>
  <path class="cls-1" d="M274.56,292.8v-45.48c0-1.9-1.01-3.65-2.65-4.6l-39.39-22.74c-1.64-.95-3.66-.95-5.31,0l-39.39,22.74c-1.64,.95-2.65,2.7-2.65,4.6v45.48c0,1.9,1.01,3.65,2.65,4.6l39.39,22.74c1.64,.95,3.66,.95,5.31,0l39.39-22.74c1.64-.95,2.65-2.7,2.65-4.6Z"/>
  <path class="cls-1" d="M181.49,127.91v-45.48c0-1.9-1.01-3.65-2.65-4.6l-39.39-22.74c-1.64-.95-3.66-.95-5.31,0l-39.39,22.74c-1.64,.95-2.65,2.7-2.65,4.6v45.48c0,1.9,1.01,3.65,2.65,4.6l39.39,22.74c1.64,.95,3.66,.95,5.31,0l39.39-22.74c1.64-.95,2.65-2.7,2.65-4.6Z"/>
  <path class="cls-1" d="M276.4,128.01v-45.48c0-1.9-1.01-3.65-2.65-4.6l-39.39-22.74c-1.64-.95-3.66-.95-5.31,0l-39.39,22.74c-1.64,.95-2.65,2.7-2.65,4.6v45.48c0,1.9,1.01,3.65,2.65,4.6l39.39,22.74c1.64,.95,3.66,.95,5.31,0l39.39-22.74c1.64-.95,2.65-2.7,2.65-4.6Z"/>
  <path class="cls-1" d="M323.45,211.09v-45.48c0-1.9-1.01-3.65-2.65-4.6l-39.39-22.74c-1.64-.95-3.66-.95-5.31,0l-39.39,22.74c-1.64,.95-2.65,2.7-2.65,4.6v45.48c0,1.9,1.01,3.65,2.65,4.6l39.39,22.74c1.64,.95,3.66,.95,5.31,0l39.39-22.74c1.64-.95,2.65-2.7,2.65-4.6Z"/>
</svg>