<svg width="10" height="12" viewBox="0 0 10 12" fill="none" xmlns="http://www.w3.org/2000/svg">
<path d="M6.67425 0.760213L6.68079 0.774418H6.69643H9.27198C9.35585 0.774418 9.43678 0.810783 9.4968 0.876327C9.55689 0.941943 9.59097 1.03136 9.59097 1.125V1.875C9.59097 1.96864 9.55689 2.05806 9.4968 2.12368C9.43678 2.18922 9.35585 2.22559 9.27198 2.22559H0.343407C0.259533 2.22559 0.178609 2.18922 0.118587 2.12368C0.0584986 2.05806 0.0244141 1.96864 0.0244141 1.875V1.125C0.0244141 1.03136 0.0584986 0.941943 0.118587 0.876327C0.178609 0.810783 0.259533 0.774418 0.343407 0.774418H2.91896H2.93459L2.94113 0.760213L3.14289 0.321932L3.14299 0.321701C3.18324 0.231808 3.24573 0.156425 3.32303 0.103962C3.40031 0.0515183 3.48933 0.0240377 3.57991 0.0244182H3.58001L6.03322 0.0244182L6.03324 0.0244182C6.12409 0.024347 6.21332 0.0519498 6.29092 0.104366C6.36854 0.156799 6.4315 0.232043 6.47246 0.321854L6.4725 0.321931L6.67425 0.760213ZM1.00656 11.654C0.817672 11.4477 0.711227 11.1676 0.711227 10.875V3.02442H8.90416V10.875C8.90416 11.1676 8.79771 11.4477 8.60882 11.654C8.42 11.8602 8.16438 11.9756 7.89835 11.9756H1.71703C1.451 11.9756 1.19539 11.8602 1.00656 11.654ZM6.6073 4.59335C6.53859 4.66839 6.50031 4.76973 6.50031 4.875V10.125C6.50031 10.2303 6.53859 10.3316 6.6073 10.4067C6.67608 10.4818 6.76985 10.5244 6.86813 10.5244C6.96641 10.5244 7.06018 10.4818 7.12896 10.4067C7.19768 10.3316 7.23595 10.2303 7.23595 10.125V4.875C7.23595 4.76973 7.19768 4.66839 7.12896 4.59335C7.06018 4.51824 6.96641 4.47559 6.86813 4.47559C6.76985 4.47559 6.67608 4.51824 6.6073 4.59335ZM4.54686 4.59335C4.47815 4.66839 4.43987 4.76973 4.43987 4.875V10.125C4.43987 10.2303 4.47815 10.3316 4.54686 10.4067C4.61564 10.4818 4.70941 10.5244 4.80769 10.5244C4.90597 10.5244 4.99974 10.4818 5.06852 10.4067C5.13724 10.3316 5.17551 10.2303 5.17551 10.125V4.875C5.17551 4.76973 5.13724 4.66839 5.06852 4.59335C4.99974 4.51824 4.90597 4.47559 4.80769 4.47559C4.70941 4.47559 4.61564 4.51824 4.54686 4.59335ZM2.48642 4.59335C2.41771 4.66839 2.37943 4.76973 2.37943 4.875V10.125C2.37943 10.2303 2.41771 10.3316 2.48642 10.4067C2.5552 10.4818 2.64897 10.5244 2.74725 10.5244C2.84553 10.5244 2.9393 10.4818 3.00808 10.4067C3.0768 10.3316 3.11507 10.2303 3.11507 10.125V4.875C3.11507 4.76973 3.0768 4.66839 3.00808 4.59335C2.9393 4.51824 2.84553 4.47559 2.74725 4.47559C2.64897 4.47559 2.5552 4.51824 2.48642 4.59335Z" fill="#C3C2C2" stroke="#343434" stroke-width="0.0488281"/>
</svg>
