<svg width="2000" height="637" viewBox="0 0 2000 637" fill="none" xmlns="http://www.w3.org/2000/svg">
<rect width="2000" height="385" transform="translate(0 151)" fill="#272727"/>
<path d="M1839.51 511.124L1832.5 504.115C1832.18 503.798 1831.75 503.623 1831.3 503.623H1830.16C1832.1 501.141 1833.25 498.019 1833.25 494.624C1833.25 486.545 1826.71 480 1818.63 480C1810.55 480 1804 486.545 1804 494.624C1804 502.702 1810.55 509.247 1818.63 509.247C1822.02 509.247 1825.14 508.094 1827.63 506.154V507.3C1827.63 507.75 1827.8 508.178 1828.12 508.495L1835.13 515.504C1835.79 516.165 1836.86 516.165 1837.51 515.504L1839.5 513.515C1840.16 512.854 1840.16 511.785 1839.51 511.124ZM1818.63 503.623C1813.65 503.623 1809.63 499.601 1809.63 494.624C1809.63 489.653 1813.65 485.624 1818.63 485.624C1823.6 485.624 1827.63 489.646 1827.63 494.624C1827.63 499.594 1823.6 503.623 1818.63 503.623Z" fill="#DFDFDF"/>
<path d="M1907.07 480.104L1884.58 486.748C1884.12 486.892 1883.72 487.177 1883.44 487.563C1883.15 487.949 1883 488.415 1883 488.894V507.275C1882.26 507.096 1881.51 507.004 1880.75 506.999C1877.02 506.999 1874 509.015 1874 511.5C1874 513.985 1877.02 516 1880.75 516C1884.48 516 1887.5 513.985 1887.5 511.5V495.068L1905.5 489.794V502.776C1904.76 502.596 1904.01 502.503 1903.25 502.499C1899.52 502.499 1896.5 504.514 1896.5 506.999C1896.5 509.484 1899.52 511.5 1903.25 511.5C1906.98 511.5 1910 509.485 1910 506.999V482.248C1910 481.895 1909.92 481.547 1909.76 481.232C1909.6 480.917 1909.36 480.644 1909.08 480.435C1908.79 480.226 1908.46 480.087 1908.12 480.03C1907.77 479.973 1907.41 479.998 1907.07 480.104Z" fill="#DFDFDF"/>
<path d="M1756.07 480.17C1755.9 480.059 1755.7 480 1755.5 480C1755.29 480 1755.1 480.059 1754.92 480.17C1753.09 481.363 1751.91 482.55 1750.73 483.734C1745.89 488.6 1745.57 494.121 1746.82 499.732L1741.93 504.645C1741.51 505.065 1741.22 505.593 1741.09 506.171C1740.95 506.748 1740.98 507.352 1741.16 507.916L1743.48 514.904C1743.57 515.163 1743.72 515.395 1743.92 515.579C1744.12 515.763 1744.36 515.892 1744.63 515.954C1744.89 516.017 1745.17 516.01 1745.43 515.936C1745.69 515.861 1745.93 515.721 1746.12 515.528L1750.99 510.635V512.754C1750.99 513.32 1751.21 513.862 1751.61 514.262C1752.01 514.662 1752.55 514.887 1753.11 514.887L1757.89 514.888C1758.17 514.888 1758.44 514.833 1758.7 514.725C1758.96 514.618 1759.19 514.461 1759.39 514.263C1759.59 514.065 1759.74 513.829 1759.85 513.57C1759.96 513.311 1760.01 513.034 1760.01 512.754V510.635L1764.89 515.531C1765.08 515.724 1765.31 515.864 1765.58 515.939C1765.84 516.013 1766.11 516.02 1766.38 515.958C1766.64 515.895 1766.88 515.766 1767.09 515.582C1767.29 515.399 1767.44 515.167 1767.52 514.908L1769.84 507.925C1770.02 507.362 1770.05 506.757 1769.91 506.179C1769.78 505.601 1769.49 505.073 1769.07 504.653L1764.17 499.73C1765.4 494.124 1765.09 488.583 1760.27 483.741C1759.09 482.549 1757.91 481.36 1756.07 480.17ZM1757.38 492.898C1757.01 493.271 1756.53 493.525 1756.02 493.628C1755.5 493.731 1754.97 493.678 1754.48 493.476C1754 493.275 1753.58 492.933 1753.29 492.494C1753 492.055 1752.84 491.54 1752.84 491.012C1752.84 490.485 1753 489.969 1753.29 489.53C1753.58 489.092 1754 488.75 1754.48 488.548C1754.97 488.346 1755.5 488.293 1756.02 488.396C1756.53 488.499 1757.01 488.753 1757.38 489.126C1757.87 489.626 1758.15 490.305 1758.15 491.012C1758.15 491.72 1757.87 492.398 1757.38 492.898Z" fill="#DFDFDF"/>
<path d="M1954.5 487V507M1944 497H1965" stroke="white" stroke-width="4" stroke-linecap="round"/>
<g filter="url(#filter0_df_11_448)">
<path d="M394.5 108L444.5 136.868V194.603L394.5 223.47L344.5 194.603V136.868L394.5 108Z" fill="#343434" fill-opacity="0.8" shape-rendering="crispEdges"/>
</g>
<g filter="url(#filter1_df_11_448)">
<path d="M447 18L497 46.8675V104.603L447 133.47L397 104.603V46.8675L447 18Z" fill="#343434" fill-opacity="0.8" shape-rendering="crispEdges"/>
</g>
<g filter="url(#filter2_df_11_448)">
<path d="M599 1L649 29.8675V87.6025L599 116.47L549 87.6025V29.8675L599 1Z" fill="#343434" fill-opacity="0.8" shape-rendering="crispEdges"/>
</g>
<g filter="url(#filter3_df_11_448)">
<path d="M499 108L549 136.868V194.603L499 223.47L449 194.603V136.868L499 108Z" fill="#343434" fill-opacity="0.8" shape-rendering="crispEdges"/>
</g>
<g filter="url(#filter4_df_11_448)">
<path d="M551.5 199L601.5 227.868V285.603L551.5 314.47L501.5 285.603V227.868L551.5 199Z" fill="#343434" fill-opacity="0.8" shape-rendering="crispEdges"/>
</g>
<g filter="url(#filter5_df_11_448)">
<path d="M395 289.9L445 318.767V376.503L395 405.37L345 376.503V318.767L395 289.9Z" fill="#343434" fill-opacity="0.8" shape-rendering="crispEdges"/>
</g>
<g filter="url(#filter6_df_11_448)">
<path d="M552 380.9L602 409.768V467.503L552 496.37L502 467.503V409.768L552 380.9Z" fill="#343434" fill-opacity="0.8" shape-rendering="crispEdges"/>
</g>
<g filter="url(#filter7_df_11_448)">
<path d="M237 381L287 409.868V467.603L237 496.47L187 467.603V409.868L237 381Z" fill="#343434" fill-opacity="0.8" shape-rendering="crispEdges"/>
</g>
<g filter="url(#filter8_df_11_448)">
<path d="M604 289.9L654 318.767V376.503L604 405.37L554 376.503V318.767L604 289.9Z" fill="#343434" fill-opacity="0.8" shape-rendering="crispEdges"/>
</g>
<g filter="url(#filter9_df_11_448)">
<path d="M237.5 199L287.5 227.868V285.603L237.5 314.47L187.5 285.603V227.868L237.5 199Z" fill="#343434" fill-opacity="0.8" shape-rendering="crispEdges"/>
</g>
<g filter="url(#filter10_df_11_448)">
<path d="M289.5 108L339.5 136.868V194.603L289.5 223.47L239.5 194.603V136.868L289.5 108Z" fill="#343434" fill-opacity="0.8" shape-rendering="crispEdges"/>
</g>
<g filter="url(#filter11_df_11_448)">
<path d="M185 289.9L235 318.767V376.503L185 405.37L135 376.503V318.767L185 289.9Z" fill="#343434" fill-opacity="0.8" shape-rendering="crispEdges"/>
</g>
<g filter="url(#filter12_df_11_448)">
<path d="M98 89L148 117.868V175.603L98 204.47L48 175.603V117.868L98 89Z" fill="#343434" fill-opacity="0.8" shape-rendering="crispEdges"/>
</g>
<g filter="url(#filter13_df_11_448)">
<path d="M499.5 471.8L549.5 500.668V558.403L499.5 587.27L449.5 558.403V500.668L499.5 471.8Z" fill="#343434" fill-opacity="0.8" shape-rendering="crispEdges"/>
</g>
<g filter="url(#filter14_df_11_448)">
<path d="M834 101L884 129.868V187.603L834 216.47L784 187.603V129.868L834 101Z" fill="#343434" fill-opacity="0.8" shape-rendering="crispEdges"/>
</g>
<g filter="url(#filter15_df_11_448)">
<path d="M638 488L688 516.868V574.603L638 603.47L588 574.603V516.868L638 488Z" fill="#343434" fill-opacity="0.8" shape-rendering="crispEdges"/>
</g>
<g filter="url(#filter16_df_11_448)">
<path d="M289.5 472L339.5 500.868V558.603L289.5 587.47L239.5 558.603V500.868L289.5 472Z" fill="#343434" fill-opacity="0.8" shape-rendering="crispEdges"/>
</g>
<g filter="url(#filter17_df_11_448)">
<path d="M886 10L936 38.8675V96.6025L886 125.47L836 96.6025V38.8675L886 10Z" fill="#343434" fill-opacity="0.8" shape-rendering="crispEdges"/>
</g>
<g filter="url(#filter18_df_11_448)">
<path d="M980 109L1030 137.868V195.603L980 224.47L930 195.603V137.868L980 109Z" fill="#343434" fill-opacity="0.8" shape-rendering="crispEdges"/>
</g>
<g filter="url(#filter19_df_11_448)">
<path d="M1263 442L1313 470.868V528.603L1263 557.47L1213 528.603V470.868L1263 442Z" fill="#343434" fill-opacity="0.8" shape-rendering="crispEdges"/>
</g>
<g filter="url(#filter20_df_11_448)">
<path d="M1440 59L1490 87.8675V145.603L1440 174.47L1390 145.603V87.8675L1440 59Z" fill="#343434" fill-opacity="0.8" shape-rendering="crispEdges"/>
</g>
<g filter="url(#filter21_df_11_448)">
<path d="M80 289L130 317.868V375.603L80 404.47L30 375.603V317.868L80 289Z" fill="#343434" fill-opacity="0.8" shape-rendering="crispEdges"/>
</g>
<g filter="url(#filter22_df_11_448)">
<path d="M132 199L182 227.868V285.603L132 314.47L82 285.603V227.868L132 199Z" fill="#343434" fill-opacity="0.8" shape-rendering="crispEdges"/>
</g>
<g filter="url(#filter23_df_11_448)">
<path d="M394.5 471.8L444.5 500.668V558.403L394.5 587.27L344.5 558.403V500.668L394.5 471.8Z" fill="#343434" fill-opacity="0.8" shape-rendering="crispEdges"/>
</g>
<g filter="url(#filter24_df_11_448)">
<path d="M1363 348L1413 376.868V434.603L1363 463.47L1313 434.603V376.868L1363 348Z" fill="#343434" fill-opacity="0.8" shape-rendering="crispEdges"/>
</g>
<g filter="url(#filter25_df_11_448)">
<path d="M750 382L800 410.868V468.603L750 497.47L700 468.603V410.868L750 382Z" fill="#343434" fill-opacity="0.8" shape-rendering="crispEdges"/>
</g>
<g filter="url(#filter26_df_11_448)">
<path d="M130 513L180 541.868V599.603L130 628.47L80 599.603V541.868L130 513Z" fill="#343434" fill-opacity="0.8" shape-rendering="crispEdges"/>
</g>
<g filter="url(#filter27_d_11_448)">
<path d="M342 199L392 227.868V285.603L342 314.47L292 285.603V227.868L342 199Z" fill="#F2F2F2"/>
<path d="M499 290L549 318.868V376.603L499 405.47L449 376.603V318.868L499 290Z" fill="#F2F2F2"/>
<path d="M446 199L496 227.868V285.603L446 314.47L396 285.603V227.868L446 199Z" fill="#F2F2F2"/>
<path d="M341 381L391 409.868V467.603L341 496.47L291 467.603V409.868L341 381Z" fill="#F2F2F2"/>
<path d="M289 289.8L339 318.668V376.403L289 405.27L239 376.403V318.668L289 289.8Z" fill="#F2F2F2"/>
<path d="M446 380.8L496 409.668V467.403L446 496.27L396 467.403V409.668L446 380.8Z" fill="#F2F2F2"/>
</g>
<g filter="url(#filter28_d_11_448)">
<path d="M573 397.653V297H588.186V340.741H638.365V297H653.601V397.653H638.365V353.765H588.186V397.653H573Z" fill="#F2F2F2"/>
<path d="M707.073 399.176C699.635 399.176 693.23 397.587 687.856 394.409C682.516 391.198 678.387 386.693 675.471 380.894C672.588 375.062 671.146 368.23 671.146 360.399C671.146 352.667 672.588 345.852 675.471 339.954C678.387 334.057 682.45 329.453 687.66 326.144C692.902 322.835 699.029 321.18 706.041 321.18C710.3 321.18 714.428 321.885 718.426 323.294C722.423 324.702 726.01 326.914 729.189 329.928C732.367 332.943 734.873 336.858 736.708 341.674C738.543 346.458 739.46 352.274 739.46 359.122V364.331H679.452V353.322H725.06C725.06 349.456 724.274 346.032 722.701 343.051C721.129 340.036 718.917 337.661 716.066 335.924C713.249 334.188 709.939 333.32 706.139 333.32C702.01 333.32 698.406 334.335 695.326 336.367C692.279 338.365 689.92 340.986 688.249 344.23C686.611 347.441 685.792 350.93 685.792 354.698V363.299C685.792 368.345 686.677 372.637 688.446 376.176C690.248 379.714 692.754 382.417 695.965 384.285C699.176 386.12 702.928 387.037 707.22 387.037C710.005 387.037 712.544 386.644 714.838 385.857C717.131 385.038 719.114 383.826 720.785 382.221C722.456 380.615 723.733 378.633 724.618 376.274L738.527 378.78C737.413 382.876 735.414 386.464 732.531 389.544C729.68 392.591 726.092 394.966 721.767 396.67C717.475 398.341 712.577 399.176 707.073 399.176Z" fill="#F2F2F2"/>
<path d="M765.606 322.163L782.267 351.553L799.075 322.163H815.146L791.605 359.908L815.343 397.653H799.272L782.267 369.442L765.312 397.653H749.191L772.684 359.908L749.486 322.163H765.606Z" fill="#F2F2F2"/>
<path d="M852.068 399.324C847.284 399.324 842.96 398.439 839.093 396.67C835.227 394.868 832.164 392.263 829.903 388.855C827.675 385.448 826.561 381.27 826.561 376.323C826.561 372.064 827.38 368.558 829.018 365.806C830.656 363.053 832.868 360.875 835.653 359.269C838.438 357.664 841.551 356.451 844.991 355.632C848.431 354.813 851.937 354.191 855.508 353.765C860.03 353.24 863.699 352.814 866.517 352.487C869.335 352.126 871.383 351.553 872.661 350.767C873.938 349.98 874.577 348.702 874.577 346.933V346.589C874.577 342.297 873.365 338.971 870.94 336.612C868.549 334.253 864.977 333.074 860.226 333.074C855.279 333.074 851.38 334.171 848.529 336.367C845.712 338.529 843.762 340.937 842.681 343.591L828.871 340.446C830.509 335.859 832.901 332.156 836.046 329.339C839.224 326.488 842.878 324.424 847.006 323.146C851.134 321.836 855.476 321.18 860.03 321.18C863.044 321.18 866.239 321.541 869.613 322.261C873.021 322.95 876.199 324.227 879.148 326.095C882.13 327.963 884.57 330.633 886.471 334.106C888.371 337.546 889.321 342.019 889.321 347.523V397.653H874.97V387.332H874.381C873.431 389.232 872.005 391.1 870.105 392.935C868.205 394.769 865.764 396.293 862.782 397.505C859.8 398.718 856.229 399.324 852.068 399.324ZM855.263 387.528C859.325 387.528 862.798 386.726 865.682 385.12C868.598 383.515 870.809 381.418 872.317 378.829C873.857 376.208 874.626 373.407 874.626 370.425V360.694C874.102 361.219 873.087 361.71 871.579 362.169C870.105 362.595 868.418 362.971 866.517 363.299C864.617 363.594 862.766 363.872 860.964 364.135C859.162 364.364 857.654 364.561 856.442 364.724C853.592 365.085 850.987 365.691 848.628 366.543C846.301 367.395 844.434 368.623 843.025 370.229C841.649 371.801 840.961 373.898 840.961 376.52C840.961 380.156 842.304 382.909 844.991 384.776C847.678 386.611 851.102 387.528 855.263 387.528Z" fill="#F2F2F2"/>
<path d="M910.074 397.653V297H925.26V384.58H970.868V397.653H910.074Z" fill="#F2F2F2"/>
<path d="M1008.98 399.324C1004.2 399.324 999.873 398.439 996.007 396.67C992.141 394.868 989.077 392.263 986.816 388.855C984.588 385.448 983.474 381.27 983.474 376.323C983.474 372.064 984.294 368.558 985.932 365.806C987.57 363.053 989.782 360.875 992.567 359.269C995.352 357.664 998.464 356.451 1001.9 355.632C1005.34 354.813 1008.85 354.191 1012.42 353.765C1016.94 353.24 1020.61 352.814 1023.43 352.487C1026.25 352.126 1028.3 351.553 1029.57 350.767C1030.85 349.98 1031.49 348.702 1031.49 346.933V346.589C1031.49 342.297 1030.28 338.971 1027.85 336.612C1025.46 334.253 1021.89 333.074 1017.14 333.074C1012.19 333.074 1008.29 334.171 1005.44 336.367C1002.63 338.529 1000.68 340.937 999.595 343.591L985.784 340.446C987.423 335.859 989.814 332.156 992.96 329.339C996.138 326.488 999.791 324.424 1003.92 323.146C1008.05 321.836 1012.39 321.18 1016.94 321.18C1019.96 321.18 1023.15 321.541 1026.53 322.261C1029.93 322.95 1033.11 324.227 1036.06 326.095C1039.04 327.963 1041.48 330.633 1043.38 334.106C1045.28 337.546 1046.23 342.019 1046.23 347.523V397.653H1031.88V387.332H1031.29C1030.34 389.232 1028.92 391.1 1027.02 392.935C1025.12 394.769 1022.68 396.293 1019.7 397.505C1016.71 398.718 1013.14 399.324 1008.98 399.324ZM1012.18 387.528C1016.24 387.528 1019.71 386.726 1022.6 385.12C1025.51 383.515 1027.72 381.418 1029.23 378.829C1030.77 376.208 1031.54 373.407 1031.54 370.425V360.694C1031.02 361.219 1030 361.71 1028.49 362.169C1027.02 362.595 1025.33 362.971 1023.43 363.299C1021.53 363.594 1019.68 363.872 1017.88 364.135C1016.08 364.364 1014.57 364.561 1013.36 364.724C1010.51 365.085 1007.9 365.691 1005.54 366.543C1003.22 367.395 1001.35 368.623 999.939 370.229C998.563 371.801 997.874 373.898 997.874 376.52C997.874 380.156 999.218 382.909 1001.9 384.776C1004.59 386.611 1008.02 387.528 1012.18 387.528Z" fill="#F2F2F2"/>
<path d="M1113.63 366.346V322.163H1128.37V397.653H1113.92V384.58H1113.14C1111.4 388.61 1108.61 391.968 1104.78 394.655C1100.98 397.309 1096.25 398.636 1090.58 398.636C1085.73 398.636 1081.44 397.571 1077.7 395.441C1074 393.279 1071.08 390.084 1068.95 385.857C1066.86 381.631 1065.81 376.405 1065.81 370.18V322.163H1080.5V368.41C1080.5 373.554 1081.93 377.65 1084.78 380.697C1087.63 383.744 1091.33 385.268 1095.89 385.268C1098.64 385.268 1101.37 384.58 1104.09 383.204C1106.85 381.827 1109.12 379.747 1110.92 376.962C1112.76 374.177 1113.66 370.638 1113.63 366.346Z" fill="#F2F2F2"/>
<path d="M1162.81 352.831V397.653H1148.12V322.163H1162.22V334.45H1163.16C1164.89 330.453 1167.61 327.242 1171.31 324.817C1175.05 322.393 1179.75 321.18 1185.42 321.18C1190.56 321.18 1195.07 322.261 1198.93 324.424C1202.8 326.554 1205.8 329.732 1207.93 333.958C1210.06 338.185 1211.12 343.411 1211.12 349.636V397.653H1196.43V351.406C1196.43 345.934 1195 341.658 1192.15 338.578C1189.3 335.466 1185.39 333.909 1180.41 333.909C1177 333.909 1173.97 334.646 1171.31 336.121C1168.69 337.595 1166.61 339.758 1165.07 342.608C1163.56 345.426 1162.81 348.834 1162.81 352.831Z" fill="#F2F2F2"/>
<path d="M1262.63 399.176C1255.32 399.176 1249.03 397.522 1243.76 394.212C1238.51 390.87 1234.48 386.267 1231.67 380.402C1228.85 374.537 1227.44 367.821 1227.44 360.252C1227.44 352.585 1228.88 345.819 1231.76 339.954C1234.65 334.057 1238.71 329.453 1243.95 326.144C1249.2 322.835 1255.37 321.18 1262.48 321.18C1268.21 321.18 1273.33 322.245 1277.81 324.375C1282.3 326.472 1285.92 329.421 1288.68 333.221C1291.46 337.022 1293.12 341.462 1293.64 346.54H1279.34C1278.55 343.001 1276.75 339.954 1273.93 337.399C1271.15 334.843 1267.41 333.565 1262.73 333.565C1258.63 333.565 1255.04 334.646 1251.96 336.809C1248.92 338.939 1246.54 341.986 1244.84 345.95C1243.13 349.882 1242.28 354.535 1242.28 359.908C1242.28 365.412 1243.12 370.163 1244.79 374.161C1246.46 378.158 1248.82 381.254 1251.87 383.449C1254.95 385.645 1258.57 386.742 1262.73 386.742C1265.51 386.742 1268.03 386.234 1270.3 385.219C1272.59 384.17 1274.51 382.679 1276.05 380.746C1277.62 378.813 1278.72 376.487 1279.34 373.767H1293.64C1293.12 378.649 1291.53 383.007 1288.87 386.84C1286.22 390.674 1282.66 393.688 1278.21 395.883C1273.78 398.079 1268.59 399.176 1262.63 399.176Z" fill="#F2F2F2"/>
<path d="M1324.05 352.831V397.653H1309.35V297H1323.85V334.45H1324.79C1326.56 330.387 1329.26 327.16 1332.9 324.768C1336.53 322.376 1341.28 321.18 1347.15 321.18C1352.33 321.18 1356.85 322.245 1360.71 324.375C1364.61 326.504 1367.63 329.683 1369.76 333.909C1371.92 338.103 1373 343.345 1373 349.636V397.653H1358.31V351.406C1358.31 345.868 1356.88 341.576 1354.03 338.529C1351.18 335.449 1347.21 333.909 1342.14 333.909C1338.66 333.909 1335.55 334.646 1332.8 336.121C1330.08 337.595 1327.93 339.758 1326.36 342.608C1324.82 345.426 1324.05 348.834 1324.05 352.831Z" fill="#F2F2F2"/>
</g>
<defs>
<filter id="filter0_df_11_448" x="340.5" y="107" width="108" height="124.47" filterUnits="userSpaceOnUse" color-interpolation-filters="sRGB">
<feFlood flood-opacity="0" result="BackgroundImageFix"/>
<feColorMatrix in="SourceAlpha" type="matrix" values="0 0 0 0 0 0 0 0 0 0 0 0 0 0 0 0 0 0 127 0" result="hardAlpha"/>
<feOffset dy="4"/>
<feGaussianBlur stdDeviation="2"/>
<feComposite in2="hardAlpha" operator="out"/>
<feColorMatrix type="matrix" values="0 0 0 0 0 0 0 0 0 0 0 0 0 0 0 0 0 0 0.25 0"/>
<feBlend mode="normal" in2="BackgroundImageFix" result="effect1_dropShadow_11_448"/>
<feBlend mode="normal" in="SourceGraphic" in2="effect1_dropShadow_11_448" result="shape"/>
<feGaussianBlur stdDeviation="0.5" result="effect2_foregroundBlur_11_448"/>
</filter>
<filter id="filter1_df_11_448" x="393" y="17" width="108" height="124.47" filterUnits="userSpaceOnUse" color-interpolation-filters="sRGB">
<feFlood flood-opacity="0" result="BackgroundImageFix"/>
<feColorMatrix in="SourceAlpha" type="matrix" values="0 0 0 0 0 0 0 0 0 0 0 0 0 0 0 0 0 0 127 0" result="hardAlpha"/>
<feOffset dy="4"/>
<feGaussianBlur stdDeviation="2"/>
<feComposite in2="hardAlpha" operator="out"/>
<feColorMatrix type="matrix" values="0 0 0 0 0 0 0 0 0 0 0 0 0 0 0 0 0 0 0.25 0"/>
<feBlend mode="normal" in2="BackgroundImageFix" result="effect1_dropShadow_11_448"/>
<feBlend mode="normal" in="SourceGraphic" in2="effect1_dropShadow_11_448" result="shape"/>
<feGaussianBlur stdDeviation="0.5" result="effect2_foregroundBlur_11_448"/>
</filter>
<filter id="filter2_df_11_448" x="545" y="0" width="108" height="124.47" filterUnits="userSpaceOnUse" color-interpolation-filters="sRGB">
<feFlood flood-opacity="0" result="BackgroundImageFix"/>
<feColorMatrix in="SourceAlpha" type="matrix" values="0 0 0 0 0 0 0 0 0 0 0 0 0 0 0 0 0 0 127 0" result="hardAlpha"/>
<feOffset dy="4"/>
<feGaussianBlur stdDeviation="2"/>
<feComposite in2="hardAlpha" operator="out"/>
<feColorMatrix type="matrix" values="0 0 0 0 0 0 0 0 0 0 0 0 0 0 0 0 0 0 0.25 0"/>
<feBlend mode="normal" in2="BackgroundImageFix" result="effect1_dropShadow_11_448"/>
<feBlend mode="normal" in="SourceGraphic" in2="effect1_dropShadow_11_448" result="shape"/>
<feGaussianBlur stdDeviation="0.5" result="effect2_foregroundBlur_11_448"/>
</filter>
<filter id="filter3_df_11_448" x="445" y="107" width="108" height="124.47" filterUnits="userSpaceOnUse" color-interpolation-filters="sRGB">
<feFlood flood-opacity="0" result="BackgroundImageFix"/>
<feColorMatrix in="SourceAlpha" type="matrix" values="0 0 0 0 0 0 0 0 0 0 0 0 0 0 0 0 0 0 127 0" result="hardAlpha"/>
<feOffset dy="4"/>
<feGaussianBlur stdDeviation="2"/>
<feComposite in2="hardAlpha" operator="out"/>
<feColorMatrix type="matrix" values="0 0 0 0 0 0 0 0 0 0 0 0 0 0 0 0 0 0 0.25 0"/>
<feBlend mode="normal" in2="BackgroundImageFix" result="effect1_dropShadow_11_448"/>
<feBlend mode="normal" in="SourceGraphic" in2="effect1_dropShadow_11_448" result="shape"/>
<feGaussianBlur stdDeviation="0.5" result="effect2_foregroundBlur_11_448"/>
</filter>
<filter id="filter4_df_11_448" x="497.5" y="198" width="108" height="124.47" filterUnits="userSpaceOnUse" color-interpolation-filters="sRGB">
<feFlood flood-opacity="0" result="BackgroundImageFix"/>
<feColorMatrix in="SourceAlpha" type="matrix" values="0 0 0 0 0 0 0 0 0 0 0 0 0 0 0 0 0 0 127 0" result="hardAlpha"/>
<feOffset dy="4"/>
<feGaussianBlur stdDeviation="2"/>
<feComposite in2="hardAlpha" operator="out"/>
<feColorMatrix type="matrix" values="0 0 0 0 0 0 0 0 0 0 0 0 0 0 0 0 0 0 0.25 0"/>
<feBlend mode="normal" in2="BackgroundImageFix" result="effect1_dropShadow_11_448"/>
<feBlend mode="normal" in="SourceGraphic" in2="effect1_dropShadow_11_448" result="shape"/>
<feGaussianBlur stdDeviation="0.5" result="effect2_foregroundBlur_11_448"/>
</filter>
<filter id="filter5_df_11_448" x="341" y="288.9" width="108" height="124.47" filterUnits="userSpaceOnUse" color-interpolation-filters="sRGB">
<feFlood flood-opacity="0" result="BackgroundImageFix"/>
<feColorMatrix in="SourceAlpha" type="matrix" values="0 0 0 0 0 0 0 0 0 0 0 0 0 0 0 0 0 0 127 0" result="hardAlpha"/>
<feOffset dy="4"/>
<feGaussianBlur stdDeviation="2"/>
<feComposite in2="hardAlpha" operator="out"/>
<feColorMatrix type="matrix" values="0 0 0 0 0 0 0 0 0 0 0 0 0 0 0 0 0 0 0.25 0"/>
<feBlend mode="normal" in2="BackgroundImageFix" result="effect1_dropShadow_11_448"/>
<feBlend mode="normal" in="SourceGraphic" in2="effect1_dropShadow_11_448" result="shape"/>
<feGaussianBlur stdDeviation="0.5" result="effect2_foregroundBlur_11_448"/>
</filter>
<filter id="filter6_df_11_448" x="498" y="379.9" width="108" height="124.47" filterUnits="userSpaceOnUse" color-interpolation-filters="sRGB">
<feFlood flood-opacity="0" result="BackgroundImageFix"/>
<feColorMatrix in="SourceAlpha" type="matrix" values="0 0 0 0 0 0 0 0 0 0 0 0 0 0 0 0 0 0 127 0" result="hardAlpha"/>
<feOffset dy="4"/>
<feGaussianBlur stdDeviation="2"/>
<feComposite in2="hardAlpha" operator="out"/>
<feColorMatrix type="matrix" values="0 0 0 0 0 0 0 0 0 0 0 0 0 0 0 0 0 0 0.25 0"/>
<feBlend mode="normal" in2="BackgroundImageFix" result="effect1_dropShadow_11_448"/>
<feBlend mode="normal" in="SourceGraphic" in2="effect1_dropShadow_11_448" result="shape"/>
<feGaussianBlur stdDeviation="0.5" result="effect2_foregroundBlur_11_448"/>
</filter>
<filter id="filter7_df_11_448" x="183" y="380" width="108" height="124.47" filterUnits="userSpaceOnUse" color-interpolation-filters="sRGB">
<feFlood flood-opacity="0" result="BackgroundImageFix"/>
<feColorMatrix in="SourceAlpha" type="matrix" values="0 0 0 0 0 0 0 0 0 0 0 0 0 0 0 0 0 0 127 0" result="hardAlpha"/>
<feOffset dy="4"/>
<feGaussianBlur stdDeviation="2"/>
<feComposite in2="hardAlpha" operator="out"/>
<feColorMatrix type="matrix" values="0 0 0 0 0 0 0 0 0 0 0 0 0 0 0 0 0 0 0.25 0"/>
<feBlend mode="normal" in2="BackgroundImageFix" result="effect1_dropShadow_11_448"/>
<feBlend mode="normal" in="SourceGraphic" in2="effect1_dropShadow_11_448" result="shape"/>
<feGaussianBlur stdDeviation="0.5" result="effect2_foregroundBlur_11_448"/>
</filter>
<filter id="filter8_df_11_448" x="550" y="288.9" width="108" height="124.47" filterUnits="userSpaceOnUse" color-interpolation-filters="sRGB">
<feFlood flood-opacity="0" result="BackgroundImageFix"/>
<feColorMatrix in="SourceAlpha" type="matrix" values="0 0 0 0 0 0 0 0 0 0 0 0 0 0 0 0 0 0 127 0" result="hardAlpha"/>
<feOffset dy="4"/>
<feGaussianBlur stdDeviation="2"/>
<feComposite in2="hardAlpha" operator="out"/>
<feColorMatrix type="matrix" values="0 0 0 0 0 0 0 0 0 0 0 0 0 0 0 0 0 0 0.25 0"/>
<feBlend mode="normal" in2="BackgroundImageFix" result="effect1_dropShadow_11_448"/>
<feBlend mode="normal" in="SourceGraphic" in2="effect1_dropShadow_11_448" result="shape"/>
<feGaussianBlur stdDeviation="0.5" result="effect2_foregroundBlur_11_448"/>
</filter>
<filter id="filter9_df_11_448" x="183.5" y="198" width="108" height="124.47" filterUnits="userSpaceOnUse" color-interpolation-filters="sRGB">
<feFlood flood-opacity="0" result="BackgroundImageFix"/>
<feColorMatrix in="SourceAlpha" type="matrix" values="0 0 0 0 0 0 0 0 0 0 0 0 0 0 0 0 0 0 127 0" result="hardAlpha"/>
<feOffset dy="4"/>
<feGaussianBlur stdDeviation="2"/>
<feComposite in2="hardAlpha" operator="out"/>
<feColorMatrix type="matrix" values="0 0 0 0 0 0 0 0 0 0 0 0 0 0 0 0 0 0 0.25 0"/>
<feBlend mode="normal" in2="BackgroundImageFix" result="effect1_dropShadow_11_448"/>
<feBlend mode="normal" in="SourceGraphic" in2="effect1_dropShadow_11_448" result="shape"/>
<feGaussianBlur stdDeviation="0.5" result="effect2_foregroundBlur_11_448"/>
</filter>
<filter id="filter10_df_11_448" x="235.5" y="107" width="108" height="124.47" filterUnits="userSpaceOnUse" color-interpolation-filters="sRGB">
<feFlood flood-opacity="0" result="BackgroundImageFix"/>
<feColorMatrix in="SourceAlpha" type="matrix" values="0 0 0 0 0 0 0 0 0 0 0 0 0 0 0 0 0 0 127 0" result="hardAlpha"/>
<feOffset dy="4"/>
<feGaussianBlur stdDeviation="2"/>
<feComposite in2="hardAlpha" operator="out"/>
<feColorMatrix type="matrix" values="0 0 0 0 0 0 0 0 0 0 0 0 0 0 0 0 0 0 0.25 0"/>
<feBlend mode="normal" in2="BackgroundImageFix" result="effect1_dropShadow_11_448"/>
<feBlend mode="normal" in="SourceGraphic" in2="effect1_dropShadow_11_448" result="shape"/>
<feGaussianBlur stdDeviation="0.5" result="effect2_foregroundBlur_11_448"/>
</filter>
<filter id="filter11_df_11_448" x="131" y="288.9" width="108" height="124.47" filterUnits="userSpaceOnUse" color-interpolation-filters="sRGB">
<feFlood flood-opacity="0" result="BackgroundImageFix"/>
<feColorMatrix in="SourceAlpha" type="matrix" values="0 0 0 0 0 0 0 0 0 0 0 0 0 0 0 0 0 0 127 0" result="hardAlpha"/>
<feOffset dy="4"/>
<feGaussianBlur stdDeviation="2"/>
<feComposite in2="hardAlpha" operator="out"/>
<feColorMatrix type="matrix" values="0 0 0 0 0 0 0 0 0 0 0 0 0 0 0 0 0 0 0.25 0"/>
<feBlend mode="normal" in2="BackgroundImageFix" result="effect1_dropShadow_11_448"/>
<feBlend mode="normal" in="SourceGraphic" in2="effect1_dropShadow_11_448" result="shape"/>
<feGaussianBlur stdDeviation="0.5" result="effect2_foregroundBlur_11_448"/>
</filter>
<filter id="filter12_df_11_448" x="44" y="88" width="108" height="124.47" filterUnits="userSpaceOnUse" color-interpolation-filters="sRGB">
<feFlood flood-opacity="0" result="BackgroundImageFix"/>
<feColorMatrix in="SourceAlpha" type="matrix" values="0 0 0 0 0 0 0 0 0 0 0 0 0 0 0 0 0 0 127 0" result="hardAlpha"/>
<feOffset dy="4"/>
<feGaussianBlur stdDeviation="2"/>
<feComposite in2="hardAlpha" operator="out"/>
<feColorMatrix type="matrix" values="0 0 0 0 0 0 0 0 0 0 0 0 0 0 0 0 0 0 0.25 0"/>
<feBlend mode="normal" in2="BackgroundImageFix" result="effect1_dropShadow_11_448"/>
<feBlend mode="normal" in="SourceGraphic" in2="effect1_dropShadow_11_448" result="shape"/>
<feGaussianBlur stdDeviation="0.5" result="effect2_foregroundBlur_11_448"/>
</filter>
<filter id="filter13_df_11_448" x="445.5" y="470.8" width="108" height="124.47" filterUnits="userSpaceOnUse" color-interpolation-filters="sRGB">
<feFlood flood-opacity="0" result="BackgroundImageFix"/>
<feColorMatrix in="SourceAlpha" type="matrix" values="0 0 0 0 0 0 0 0 0 0 0 0 0 0 0 0 0 0 127 0" result="hardAlpha"/>
<feOffset dy="4"/>
<feGaussianBlur stdDeviation="2"/>
<feComposite in2="hardAlpha" operator="out"/>
<feColorMatrix type="matrix" values="0 0 0 0 0 0 0 0 0 0 0 0 0 0 0 0 0 0 0.25 0"/>
<feBlend mode="normal" in2="BackgroundImageFix" result="effect1_dropShadow_11_448"/>
<feBlend mode="normal" in="SourceGraphic" in2="effect1_dropShadow_11_448" result="shape"/>
<feGaussianBlur stdDeviation="0.5" result="effect2_foregroundBlur_11_448"/>
</filter>
<filter id="filter14_df_11_448" x="780" y="100" width="108" height="124.47" filterUnits="userSpaceOnUse" color-interpolation-filters="sRGB">
<feFlood flood-opacity="0" result="BackgroundImageFix"/>
<feColorMatrix in="SourceAlpha" type="matrix" values="0 0 0 0 0 0 0 0 0 0 0 0 0 0 0 0 0 0 127 0" result="hardAlpha"/>
<feOffset dy="4"/>
<feGaussianBlur stdDeviation="2"/>
<feComposite in2="hardAlpha" operator="out"/>
<feColorMatrix type="matrix" values="0 0 0 0 0 0 0 0 0 0 0 0 0 0 0 0 0 0 0.25 0"/>
<feBlend mode="normal" in2="BackgroundImageFix" result="effect1_dropShadow_11_448"/>
<feBlend mode="normal" in="SourceGraphic" in2="effect1_dropShadow_11_448" result="shape"/>
<feGaussianBlur stdDeviation="0.5" result="effect2_foregroundBlur_11_448"/>
</filter>
<filter id="filter15_df_11_448" x="584" y="487" width="108" height="124.47" filterUnits="userSpaceOnUse" color-interpolation-filters="sRGB">
<feFlood flood-opacity="0" result="BackgroundImageFix"/>
<feColorMatrix in="SourceAlpha" type="matrix" values="0 0 0 0 0 0 0 0 0 0 0 0 0 0 0 0 0 0 127 0" result="hardAlpha"/>
<feOffset dy="4"/>
<feGaussianBlur stdDeviation="2"/>
<feComposite in2="hardAlpha" operator="out"/>
<feColorMatrix type="matrix" values="0 0 0 0 0 0 0 0 0 0 0 0 0 0 0 0 0 0 0.25 0"/>
<feBlend mode="normal" in2="BackgroundImageFix" result="effect1_dropShadow_11_448"/>
<feBlend mode="normal" in="SourceGraphic" in2="effect1_dropShadow_11_448" result="shape"/>
<feGaussianBlur stdDeviation="0.5" result="effect2_foregroundBlur_11_448"/>
</filter>
<filter id="filter16_df_11_448" x="235.5" y="471" width="108" height="124.47" filterUnits="userSpaceOnUse" color-interpolation-filters="sRGB">
<feFlood flood-opacity="0" result="BackgroundImageFix"/>
<feColorMatrix in="SourceAlpha" type="matrix" values="0 0 0 0 0 0 0 0 0 0 0 0 0 0 0 0 0 0 127 0" result="hardAlpha"/>
<feOffset dy="4"/>
<feGaussianBlur stdDeviation="2"/>
<feComposite in2="hardAlpha" operator="out"/>
<feColorMatrix type="matrix" values="0 0 0 0 0 0 0 0 0 0 0 0 0 0 0 0 0 0 0.25 0"/>
<feBlend mode="normal" in2="BackgroundImageFix" result="effect1_dropShadow_11_448"/>
<feBlend mode="normal" in="SourceGraphic" in2="effect1_dropShadow_11_448" result="shape"/>
<feGaussianBlur stdDeviation="0.5" result="effect2_foregroundBlur_11_448"/>
</filter>
<filter id="filter17_df_11_448" x="832" y="9" width="108" height="124.47" filterUnits="userSpaceOnUse" color-interpolation-filters="sRGB">
<feFlood flood-opacity="0" result="BackgroundImageFix"/>
<feColorMatrix in="SourceAlpha" type="matrix" values="0 0 0 0 0 0 0 0 0 0 0 0 0 0 0 0 0 0 127 0" result="hardAlpha"/>
<feOffset dy="4"/>
<feGaussianBlur stdDeviation="2"/>
<feComposite in2="hardAlpha" operator="out"/>
<feColorMatrix type="matrix" values="0 0 0 0 0 0 0 0 0 0 0 0 0 0 0 0 0 0 0.25 0"/>
<feBlend mode="normal" in2="BackgroundImageFix" result="effect1_dropShadow_11_448"/>
<feBlend mode="normal" in="SourceGraphic" in2="effect1_dropShadow_11_448" result="shape"/>
<feGaussianBlur stdDeviation="0.5" result="effect2_foregroundBlur_11_448"/>
</filter>
<filter id="filter18_df_11_448" x="926" y="108" width="108" height="124.47" filterUnits="userSpaceOnUse" color-interpolation-filters="sRGB">
<feFlood flood-opacity="0" result="BackgroundImageFix"/>
<feColorMatrix in="SourceAlpha" type="matrix" values="0 0 0 0 0 0 0 0 0 0 0 0 0 0 0 0 0 0 127 0" result="hardAlpha"/>
<feOffset dy="4"/>
<feGaussianBlur stdDeviation="2"/>
<feComposite in2="hardAlpha" operator="out"/>
<feColorMatrix type="matrix" values="0 0 0 0 0 0 0 0 0 0 0 0 0 0 0 0 0 0 0.25 0"/>
<feBlend mode="normal" in2="BackgroundImageFix" result="effect1_dropShadow_11_448"/>
<feBlend mode="normal" in="SourceGraphic" in2="effect1_dropShadow_11_448" result="shape"/>
<feGaussianBlur stdDeviation="0.5" result="effect2_foregroundBlur_11_448"/>
</filter>
<filter id="filter19_df_11_448" x="1209" y="441" width="108" height="124.47" filterUnits="userSpaceOnUse" color-interpolation-filters="sRGB">
<feFlood flood-opacity="0" result="BackgroundImageFix"/>
<feColorMatrix in="SourceAlpha" type="matrix" values="0 0 0 0 0 0 0 0 0 0 0 0 0 0 0 0 0 0 127 0" result="hardAlpha"/>
<feOffset dy="4"/>
<feGaussianBlur stdDeviation="2"/>
<feComposite in2="hardAlpha" operator="out"/>
<feColorMatrix type="matrix" values="0 0 0 0 0 0 0 0 0 0 0 0 0 0 0 0 0 0 0.25 0"/>
<feBlend mode="normal" in2="BackgroundImageFix" result="effect1_dropShadow_11_448"/>
<feBlend mode="normal" in="SourceGraphic" in2="effect1_dropShadow_11_448" result="shape"/>
<feGaussianBlur stdDeviation="0.5" result="effect2_foregroundBlur_11_448"/>
</filter>
<filter id="filter20_df_11_448" x="1386" y="58" width="108" height="124.47" filterUnits="userSpaceOnUse" color-interpolation-filters="sRGB">
<feFlood flood-opacity="0" result="BackgroundImageFix"/>
<feColorMatrix in="SourceAlpha" type="matrix" values="0 0 0 0 0 0 0 0 0 0 0 0 0 0 0 0 0 0 127 0" result="hardAlpha"/>
<feOffset dy="4"/>
<feGaussianBlur stdDeviation="2"/>
<feComposite in2="hardAlpha" operator="out"/>
<feColorMatrix type="matrix" values="0 0 0 0 0 0 0 0 0 0 0 0 0 0 0 0 0 0 0.25 0"/>
<feBlend mode="normal" in2="BackgroundImageFix" result="effect1_dropShadow_11_448"/>
<feBlend mode="normal" in="SourceGraphic" in2="effect1_dropShadow_11_448" result="shape"/>
<feGaussianBlur stdDeviation="0.5" result="effect2_foregroundBlur_11_448"/>
</filter>
<filter id="filter21_df_11_448" x="26" y="288" width="108" height="124.47" filterUnits="userSpaceOnUse" color-interpolation-filters="sRGB">
<feFlood flood-opacity="0" result="BackgroundImageFix"/>
<feColorMatrix in="SourceAlpha" type="matrix" values="0 0 0 0 0 0 0 0 0 0 0 0 0 0 0 0 0 0 127 0" result="hardAlpha"/>
<feOffset dy="4"/>
<feGaussianBlur stdDeviation="2"/>
<feComposite in2="hardAlpha" operator="out"/>
<feColorMatrix type="matrix" values="0 0 0 0 0 0 0 0 0 0 0 0 0 0 0 0 0 0 0.25 0"/>
<feBlend mode="normal" in2="BackgroundImageFix" result="effect1_dropShadow_11_448"/>
<feBlend mode="normal" in="SourceGraphic" in2="effect1_dropShadow_11_448" result="shape"/>
<feGaussianBlur stdDeviation="0.5" result="effect2_foregroundBlur_11_448"/>
</filter>
<filter id="filter22_df_11_448" x="78" y="198" width="108" height="124.47" filterUnits="userSpaceOnUse" color-interpolation-filters="sRGB">
<feFlood flood-opacity="0" result="BackgroundImageFix"/>
<feColorMatrix in="SourceAlpha" type="matrix" values="0 0 0 0 0 0 0 0 0 0 0 0 0 0 0 0 0 0 127 0" result="hardAlpha"/>
<feOffset dy="4"/>
<feGaussianBlur stdDeviation="2"/>
<feComposite in2="hardAlpha" operator="out"/>
<feColorMatrix type="matrix" values="0 0 0 0 0 0 0 0 0 0 0 0 0 0 0 0 0 0 0.25 0"/>
<feBlend mode="normal" in2="BackgroundImageFix" result="effect1_dropShadow_11_448"/>
<feBlend mode="normal" in="SourceGraphic" in2="effect1_dropShadow_11_448" result="shape"/>
<feGaussianBlur stdDeviation="0.5" result="effect2_foregroundBlur_11_448"/>
</filter>
<filter id="filter23_df_11_448" x="340.5" y="470.8" width="108" height="124.47" filterUnits="userSpaceOnUse" color-interpolation-filters="sRGB">
<feFlood flood-opacity="0" result="BackgroundImageFix"/>
<feColorMatrix in="SourceAlpha" type="matrix" values="0 0 0 0 0 0 0 0 0 0 0 0 0 0 0 0 0 0 127 0" result="hardAlpha"/>
<feOffset dy="4"/>
<feGaussianBlur stdDeviation="2"/>
<feComposite in2="hardAlpha" operator="out"/>
<feColorMatrix type="matrix" values="0 0 0 0 0 0 0 0 0 0 0 0 0 0 0 0 0 0 0.25 0"/>
<feBlend mode="normal" in2="BackgroundImageFix" result="effect1_dropShadow_11_448"/>
<feBlend mode="normal" in="SourceGraphic" in2="effect1_dropShadow_11_448" result="shape"/>
<feGaussianBlur stdDeviation="0.5" result="effect2_foregroundBlur_11_448"/>
</filter>
<filter id="filter24_df_11_448" x="1309" y="347" width="108" height="124.47" filterUnits="userSpaceOnUse" color-interpolation-filters="sRGB">
<feFlood flood-opacity="0" result="BackgroundImageFix"/>
<feColorMatrix in="SourceAlpha" type="matrix" values="0 0 0 0 0 0 0 0 0 0 0 0 0 0 0 0 0 0 127 0" result="hardAlpha"/>
<feOffset dy="4"/>
<feGaussianBlur stdDeviation="2"/>
<feComposite in2="hardAlpha" operator="out"/>
<feColorMatrix type="matrix" values="0 0 0 0 0 0 0 0 0 0 0 0 0 0 0 0 0 0 0.25 0"/>
<feBlend mode="normal" in2="BackgroundImageFix" result="effect1_dropShadow_11_448"/>
<feBlend mode="normal" in="SourceGraphic" in2="effect1_dropShadow_11_448" result="shape"/>
<feGaussianBlur stdDeviation="0.5" result="effect2_foregroundBlur_11_448"/>
</filter>
<filter id="filter25_df_11_448" x="696" y="381" width="108" height="124.47" filterUnits="userSpaceOnUse" color-interpolation-filters="sRGB">
<feFlood flood-opacity="0" result="BackgroundImageFix"/>
<feColorMatrix in="SourceAlpha" type="matrix" values="0 0 0 0 0 0 0 0 0 0 0 0 0 0 0 0 0 0 127 0" result="hardAlpha"/>
<feOffset dy="4"/>
<feGaussianBlur stdDeviation="2"/>
<feComposite in2="hardAlpha" operator="out"/>
<feColorMatrix type="matrix" values="0 0 0 0 0 0 0 0 0 0 0 0 0 0 0 0 0 0 0.25 0"/>
<feBlend mode="normal" in2="BackgroundImageFix" result="effect1_dropShadow_11_448"/>
<feBlend mode="normal" in="SourceGraphic" in2="effect1_dropShadow_11_448" result="shape"/>
<feGaussianBlur stdDeviation="0.5" result="effect2_foregroundBlur_11_448"/>
</filter>
<filter id="filter26_df_11_448" x="76" y="512" width="108" height="124.47" filterUnits="userSpaceOnUse" color-interpolation-filters="sRGB">
<feFlood flood-opacity="0" result="BackgroundImageFix"/>
<feColorMatrix in="SourceAlpha" type="matrix" values="0 0 0 0 0 0 0 0 0 0 0 0 0 0 0 0 0 0 127 0" result="hardAlpha"/>
<feOffset dy="4"/>
<feGaussianBlur stdDeviation="2"/>
<feComposite in2="hardAlpha" operator="out"/>
<feColorMatrix type="matrix" values="0 0 0 0 0 0 0 0 0 0 0 0 0 0 0 0 0 0 0.25 0"/>
<feBlend mode="normal" in2="BackgroundImageFix" result="effect1_dropShadow_11_448"/>
<feBlend mode="normal" in="SourceGraphic" in2="effect1_dropShadow_11_448" result="shape"/>
<feGaussianBlur stdDeviation="0.5" result="effect2_foregroundBlur_11_448"/>
</filter>
<filter id="filter27_d_11_448" x="239" y="199" width="318" height="305.47" filterUnits="userSpaceOnUse" color-interpolation-filters="sRGB">
<feFlood flood-opacity="0" result="BackgroundImageFix"/>
<feColorMatrix in="SourceAlpha" type="matrix" values="0 0 0 0 0 0 0 0 0 0 0 0 0 0 0 0 0 0 127 0" result="hardAlpha"/>
<feOffset dx="4" dy="4"/>
<feGaussianBlur stdDeviation="2"/>
<feColorMatrix type="matrix" values="0 0 0 0 0.0375 0 0 0 0 0.0375 0 0 0 0 0.0375 0 0 0 0.25 0"/>
<feBlend mode="normal" in2="BackgroundImageFix" result="effect1_dropShadow_11_448"/>
<feBlend mode="normal" in="SourceGraphic" in2="effect1_dropShadow_11_448" result="shape"/>
</filter>
<filter id="filter28_d_11_448" x="573" y="297" width="808" height="110.324" filterUnits="userSpaceOnUse" color-interpolation-filters="sRGB">
<feFlood flood-opacity="0" result="BackgroundImageFix"/>
<feColorMatrix in="SourceAlpha" type="matrix" values="0 0 0 0 0 0 0 0 0 0 0 0 0 0 0 0 0 0 127 0" result="hardAlpha"/>
<feOffset dx="4" dy="4"/>
<feGaussianBlur stdDeviation="2"/>
<feComposite in2="hardAlpha" operator="out"/>
<feColorMatrix type="matrix" values="0 0 0 0 0 0 0 0 0 0 0 0 0 0 0 0 0 0 0.25 0"/>
<feBlend mode="normal" in2="BackgroundImageFix" result="effect1_dropShadow_11_448"/>
<feBlend mode="normal" in="SourceGraphic" in2="effect1_dropShadow_11_448" result="shape"/>
</filter>
</defs>
</svg>
