<svg width="21" height="21" viewBox="0 0 21 21" fill="none" xmlns="http://www.w3.org/2000/svg">
<path d="M19.2929 0.0607169L6.16916 3.93651C5.90276 4.0202 5.66999 4.18667 5.50469 4.41173C5.33939 4.6368 5.25017 4.90872 5.25 5.18797V15.9105C4.82022 15.8062 4.37976 15.7522 3.9375 15.7497C1.76367 15.7497 0 16.9253 0 18.3748C0 19.8244 1.76367 21 3.9375 21C6.11133 21 7.875 19.8244 7.875 18.3748V8.78976L18.375 5.71341V13.2857C17.9453 13.1811 17.5048 13.127 17.0625 13.1245C14.8887 13.1245 13.125 14.3001 13.125 15.7497C13.125 17.1993 14.8887 18.3748 17.0625 18.3748C19.2363 18.3748 21 17.1997 21 15.7497V1.31136C20.9998 1.1053 20.9511 0.90218 20.8578 0.71844C20.7646 0.534701 20.6294 0.375502 20.4631 0.253728C20.2969 0.131955 20.1044 0.0510271 19.9011 0.0174956C19.6978 -0.0160359 19.4894 -0.00122934 19.2929 0.0607169Z" fill="#DFDFDF"/>
</svg>
